<?xml version="1.0" standalone="no"?>
<!DOCTYPE svg PUBLIC "-//W3C//DTD SVG 20010904//EN"
 "http://www.w3.org/TR/2001/REC-SVG-20010904/DTD/svg10.dtd">
<svg version="1.0" xmlns="http://www.w3.org/2000/svg"
 width="514.000000pt" height="486.000000pt" viewBox="0 0 514.000000 486.000000"
 preserveAspectRatio="xMidYMid meet">

<g transform="translate(0.000000,486.000000) scale(0.100000,-0.100000)"
fill="#000000" stroke="none">
<path d="M2470 3891 c0 -14 30 -22 31 -8 1 7 4 -4 8 -23 9 -51 2 -100 -14 -94
-7 3 -16 1 -20 -5 -4 -7 14 -11 54 -11 36 0 61 4 61 11 0 5 -5 7 -12 3 -8 -5
-9 -1 -4 12 6 15 5 17 -5 7 -21 -21 -49 -16 -49 8 0 16 5 20 20 16 23 -6 34 7
26 30 -5 12 -9 13 -21 3 -12 -10 -16 -9 -21 3 -3 9 -3 21 1 27 8 13 35 13 35
0 0 -19 16 -10 17 10 2 18 -4 20 -53 20 -30 0 -54 -4 -54 -9z"/>
<path d="M2332 3883 c-6 -2 -9 -9 -6 -14 3 -6 11 -5 20 2 11 9 14 8 14 -8 0
-11 3 -41 6 -67 6 -43 5 -46 -15 -46 -12 0 -20 -4 -17 -8 7 -11 66 -3 66 9 0
5 -4 9 -10 9 -5 0 -10 10 -10 21 0 16 5 20 20 16 15 -4 20 0 20 13 0 22 -16
35 -25 20 -9 -15 -25 -2 -25 21 0 12 7 19 20 19 11 0 20 -4 20 -10 0 -5 5 -10
10 -10 6 0 10 9 10 20 0 17 -6 20 -42 19 -24 0 -49 -3 -56 -6z"/>
<path d="M2655 3868 c1 -10 16 -31 35 -47 38 -31 36 -55 -4 -59 -17 -1 -29 5
-37 19 -6 11 -13 18 -16 15 -3 -3 0 -12 7 -21 10 -12 10 -15 -1 -16 -18 -1 21
-17 43 -18 22 -1 48 26 48 50 0 12 -13 27 -30 37 -35 19 -36 46 -2 48 16 1 21
-3 18 -12 -3 -8 -1 -14 4 -14 6 0 10 9 10 20 0 18 -6 20 -38 19 -30 -2 -38 -7
-37 -21z"/>
<path d="M2783 3873 c4 -3 2 -12 -4 -20 -8 -9 -8 -13 -1 -13 6 0 14 5 17 11 4
6 13 8 21 5 8 -3 14 1 14 9 0 10 -10 15 -27 15 -14 0 -23 -3 -20 -7z"/>
<path d="M2842 3863 c1 -5 -2 -34 -6 -66 -7 -50 -11 -57 -27 -52 -11 4 -19 2
-19 -3 0 -5 14 -12 30 -14 24 -4 30 -1 25 10 -3 8 -2 36 1 63 5 37 10 47 24
46 11 -1 16 -6 12 -16 -3 -9 -1 -12 6 -7 7 4 12 16 12 27 0 14 -7 19 -30 19
-16 0 -29 -3 -28 -7z"/>
<path d="M2181 3853 c-1 -7 -8 -10 -16 -7 -22 9 -91 -16 -74 -27 8 -4 16 -3
20 3 7 11 22 -30 34 -91 6 -28 5 -33 -9 -28 -8 3 -18 2 -21 -3 -8 -13 5 -12
60 2 45 12 60 37 33 54 -7 5 -9 1 -6 -13 4 -16 1 -20 -21 -19 -19 1 -27 7 -29
24 -3 20 0 23 18 17 18 -6 21 -3 19 17 -2 12 -1 28 3 33 3 6 2 19 -3 30 -4 11
-8 15 -8 8z m-6 -49 c1 -16 -3 -20 -17 -16 -23 6 -25 45 -1 40 9 -2 17 -12 18
-24z"/>
<path d="M2491 3834 c0 -11 3 -14 6 -6 3 7 2 16 -1 19 -3 4 -6 -2 -5 -13z"/>
<path d="M2945 3840 c3 -5 12 -7 20 -4 12 5 14 -1 9 -27 -4 -19 -12 -51 -19
-71 -12 -36 -11 -38 8 -38 15 0 18 3 10 11 -13 13 3 86 24 110 12 14 12 17 -2
23 -25 9 -57 7 -50 -4z"/>
<path d="M2341 3824 c0 -11 3 -14 6 -6 3 7 2 16 -1 19 -3 4 -6 -2 -5 -13z"/>
<path d="M2641 3827 c2 -2 18 -11 34 -21 l30 -17 -24 20 c-13 12 -28 21 -34
21 -6 0 -8 -1 -6 -3z"/>
<path d="M3045 3820 c3 -5 13 -10 21 -10 11 0 14 -16 13 -72 0 -50 -3 -67 -9
-53 -7 16 -9 17 -9 3 -2 -35 19 -26 69 32 29 34 51 62 49 64 -2 2 -15 7 -28
11 -17 5 -22 4 -18 -6 2 -8 10 -13 16 -11 9 2 9 -3 1 -19 -7 -11 -14 -18 -17
-15 -4 3 -15 -1 -25 -11 -17 -15 -18 -14 -18 20 0 20 5 39 11 43 8 4 3 12 -12
20 -29 16 -53 18 -44 4z"/>
<path d="M1953 3784 c-15 -14 -22 -23 -15 -19 8 4 12 -2 12 -20 0 -15 5 -36
11 -47 8 -15 8 -22 -1 -28 -8 -5 -7 -9 5 -14 26 -9 53 -7 78 7 12 6 23 13 25
13 7 4 -11 74 -18 74 -5 0 -4 -15 1 -32 11 -40 11 -40 0 -34 -5 3 -23 -1 -40
-10 -18 -9 -35 -13 -38 -10 -4 3 -1 6 5 6 7 0 6 9 -4 28 -22 43 -18 70 16 87
26 13 29 14 24 0 -4 -9 0 -15 9 -15 10 0 13 7 10 20 -8 28 -46 26 -80 -6z"/>
<path d="M2811 3794 c0 -11 3 -14 6 -6 3 7 2 16 -1 19 -3 4 -6 -2 -5 -13z"/>
<path d="M3252 3738 c-7 -7 -12 -19 -12 -28 0 -9 -13 -29 -30 -45 -33 -32 -38
-45 -15 -45 9 0 12 6 9 15 -4 10 0 15 14 15 26 0 37 -17 23 -34 -6 -7 -8 -16
-4 -19 13 -14 18 -6 21 34 1 24 -1 38 -7 35 -5 -4 -12 -2 -16 3 -3 5 1 13 9
18 8 4 14 17 13 27 -3 28 21 31 26 4 5 -22 5 -22 4 1 -2 28 -17 37 -35 19z"/>
<path d="M2010 3730 c0 -5 5 -10 10 -10 6 0 10 5 10 10 0 6 -4 10 -10 10 -5 0
-10 -4 -10 -10z"/>
<path d="M2920 3725 c-8 -9 -8 -15 -2 -15 12 0 26 19 19 26 -2 2 -10 -2 -17
-11z"/>
<path d="M1855 3679 c30 -28 52 -56 48 -62 -3 -5 0 -8 7 -5 19 6 25 28 8 28
-8 0 -34 20 -58 45 -24 25 -47 45 -51 45 -5 0 17 -23 46 -51z"/>
<path d="M1810 3682 c0 -14 5 -20 14 -16 8 3 17 1 21 -5 3 -6 -1 -11 -9 -11
-12 0 -16 -11 -17 -37 -1 -38 -1 -38 -9 -8 -8 30 -8 30 -9 -7 -1 -37 0 -37 24
-26 19 8 22 14 14 24 -14 17 -3 34 21 34 13 0 17 -5 14 -15 -4 -8 -1 -15 5
-15 22 0 10 27 -29 65 -36 35 -40 37 -40 17z"/>
<path d="M3380 3668 c0 -18 2 -20 10 -8 5 8 11 12 14 9 3 -2 -11 -32 -30 -64
-20 -33 -33 -50 -30 -37 4 20 2 22 -12 10 -9 -7 -18 -13 -20 -14 -2 -1 17 -13
42 -27 32 -18 47 -22 55 -14 18 18 13 29 -9 22 -13 -4 -22 -1 -26 9 -7 19 35
96 53 96 22 0 15 16 -12 28 -34 16 -35 16 -35 -10z"/>
<path d="M1684 3665 c-18 -14 -18 -16 14 -74 33 -62 38 -76 23 -66 -5 3 -12 1
-16 -5 -9 -14 17 -12 38 4 21 16 22 26 3 26 -17 0 -68 87 -56 95 4 3 15 2 24
-1 19 -7 21 9 3 25 -10 8 -19 7 -33 -4z"/>
<path d="M1630 3629 c-14 -11 -19 -18 -11 -14 10 6 11 2 6 -15 -5 -15 -4 -20
4 -16 6 4 11 14 11 22 0 19 10 18 27 -3 12 -16 13 -15 1 7 -7 14 -11 28 -10
33 3 10 0 9 -28 -14z"/>
<path d="M3150 3640 c0 -5 5 -10 10 -10 6 0 10 5 10 10 0 6 -4 10 -10 10 -5 0
-10 -4 -10 -10z"/>
<path d="M3270 3617 c0 -20 4 -37 10 -37 5 0 7 14 3 33 -8 45 -13 47 -13 4z"/>
<path d="M1535 3570 c-16 -11 -28 -20 -25 -21 3 0 13 -2 22 -4 11 -2 15 2 11
11 -11 29 8 12 42 -38 35 -52 44 -75 26 -63 -5 3 -12 1 -16 -5 -9 -14 17 -12
38 4 20 16 22 26 3 26 -14 0 -61 65 -67 93 -4 15 -7 15 -34 -3z"/>
<path d="M1410 3472 c-33 -28 -33 -29 -11 -35 18 -4 20 -3 11 8 -8 9 -8 15 0
20 5 3 10 1 10 -5 0 -6 19 -31 41 -55 37 -40 41 -50 17 -46 -5 0 -8 -6 -8 -14
0 -14 3 -13 25 1 30 20 32 30 5 37 -11 3 -20 10 -20 17 0 7 8 9 23 5 17 -5 19
-4 7 4 -13 10 -13 11 0 11 8 0 22 -5 30 -10 12 -8 12 -10 1 -10 -8 0 -12 -2
-9 -5 7 -8 38 5 38 16 0 5 -8 9 -18 9 -10 0 -28 8 -42 17 -22 16 -23 16 -17 0
4 -11 1 -17 -7 -17 -9 0 -12 9 -8 26 3 20 0 26 -17 31 -11 3 -18 9 -15 14 9
15 -1 10 -36 -19z m60 -22 c0 -11 -4 -20 -9 -20 -13 0 -32 26 -24 33 13 14 33
6 33 -13z"/>
<path d="M1482 3480 c14 -22 24 -19 15 5 -4 8 -11 15 -17 15 -6 0 -6 -7 2 -20z"/>
<path d="M2862 3482 c25 -30 93 -54 174 -62 l83 -7 83 -77 c45 -42 87 -76 93
-76 5 0 -18 26 -53 56 -34 31 -59 60 -56 65 3 5 -6 13 -19 18 -14 6 -28 14
-31 19 -3 6 -37 13 -75 17 -38 4 -80 15 -96 25 l-27 18 41 0 c23 0 41 -4 41
-10 0 -7 24 -9 70 -5 63 5 73 3 90 -16 11 -11 20 -18 20 -14 0 4 9 -1 19 -10
11 -9 18 -20 15 -25 -3 -5 0 -7 8 -6 7 2 12 -3 10 -11 -7 -32 9 -49 48 -53 23
-2 40 1 40 7 0 5 4 4 9 -4 6 -10 10 -10 16 -1 4 6 5 12 4 13 -2 2 -20 10 -39
19 -20 8 -61 39 -92 67 -54 49 -60 52 -134 61 -43 6 -117 9 -166 8 -73 -1 -85
-4 -76 -16z m428 -117 c20 -24 6 -28 -15 -5 -10 11 -13 20 -8 20 6 0 16 -7 23
-15z"/>
<path d="M1982 3482 c-7 -5 -29 -53 -50 -107 l-37 -98 -125 -33 c-205 -53
-301 -96 -274 -124 18 -19 48 -16 206 15 81 16 150 26 154 23 7 -8 2 -33 -58
-278 -49 -200 -93 -362 -107 -388 -5 -10 -29 -24 -53 -31 -87 -25 -176 -62
-182 -76 -7 -20 20 -45 48 -45 13 0 43 7 66 15 49 17 100 20 100 5 0 -6 -31
-143 -70 -305 -125 -528 -163 -743 -142 -790 21 -47 45 -28 63 50 15 63 162
638 239 935 16 63 34 125 39 137 11 23 65 43 132 48 20 1 41 5 46 8 15 9 233
39 247 34 27 -11 26 -65 -3 -154 -15 -49 -52 -186 -82 -305 l-53 -217 -51 -19
c-27 -11 -58 -23 -67 -27 -15 -6 -17 2 -21 57 l-3 63 -2 -66 c-2 -60 -4 -67
-32 -88 -17 -12 -28 -26 -25 -32 9 -14 65 -11 117 8 26 9 51 14 55 10 4 -4
-10 -96 -31 -205 -48 -246 -55 -326 -31 -335 25 -10 33 -1 40 41 13 78 67 312
96 420 23 83 37 117 53 126 30 19 425 131 432 123 4 -4 -12 -86 -35 -184 -108
-467 -122 -533 -128 -595 -5 -58 -3 -68 11 -74 9 -4 19 -4 22 -1 3 3 41 149
84 324 76 306 142 549 153 559 13 13 138 35 195 35 48 -1 62 3 62 14 0 29 -38
37 -141 29 -54 -3 -99 -3 -99 0 0 7 45 172 56 205 3 11 7 11 22 0 14 -11 15
-11 5 1 -7 8 -13 23 -13 34 0 21 68 273 79 294 5 9 28 -8 77 -58 75 -77 84
-90 60 -90 -19 0 -22 -26 -4 -32 6 -2 29 0 50 6 20 5 40 8 43 5 3 -3 -17 -102
-44 -220 -61 -267 -77 -357 -63 -371 13 -13 32 -2 32 19 0 15 120 492 141 560
12 39 28 44 202 69 97 14 126 15 159 5 61 -19 69 1 13 32 -25 14 -43 22 -41
18 3 -5 -29 -11 -72 -15 -189 -16 -232 -18 -232 -11 0 4 19 84 42 177 36 148
45 171 65 179 12 4 113 18 224 30 169 18 212 19 262 9 39 -7 63 -8 69 -2 17
17 -32 35 -112 40 -42 3 -79 10 -85 17 -5 7 -94 41 -197 75 -103 34 -190 66
-193 71 -4 5 -14 9 -23 9 -29 -1 -661 215 -654 222 4 4 66 10 137 14 100 5
147 2 205 -10 92 -20 124 -20 139 -2 15 18 1 29 -64 50 -103 33 -198 39 -425
26 l-215 -12 -167 57 c-142 48 -167 60 -170 78 -3 23 -42 34 -66 19z m228
-106 c63 -21 119 -42 123 -46 4 -4 -29 -10 -75 -13 -66 -5 -88 -2 -108 10 -23
15 -24 15 -11 0 7 -9 9 -17 3 -17 -5 0 -15 7 -22 15 -7 8 -9 15 -4 15 4 0 -11
14 -34 31 -41 30 -48 40 -36 51 6 7 12 5 164 -46z m-125 -28 c20 -24 23 -33
13 -39 -8 -6 -19 -1 -30 14 l-17 22 6 -22 c4 -17 1 -23 -11 -23 -17 0 -20 19
-10 58 8 30 17 28 49 -10z m516 -104 c24 -9 268 -92 541 -184 274 -93 505
-173 514 -178 11 -6 -14 -11 -82 -16 -55 -3 -136 -9 -180 -13 l-81 -6 5 53 c4
47 3 52 -14 48 -12 -2 -27 -23 -41 -58 l-21 -54 -79 -22 c-43 -12 -89 -26
-103 -32 -20 -8 -32 -6 -60 11 l-35 21 39 -37 c22 -20 47 -37 56 -37 9 0 22
-6 30 -12 12 -11 12 -10 2 4 -11 14 -7 17 38 27 94 20 99 17 79 -49 -5 -19
-12 -48 -14 -63 -8 -55 -57 -222 -68 -234 -7 -7 -26 -15 -42 -18 -27 -6 -38 2
-110 74 l-79 81 22 84 c27 103 27 112 2 119 -19 5 -50 -15 -50 -33 0 -5 -9
-30 -20 -56 l-21 -48 -299 299 c-164 164 -296 303 -293 308 3 4 19 8 37 7 17
-1 33 -1 36 0 5 3 192 26 226 29 12 0 41 -6 65 -15z m-87 -331 c168 -170 306
-310 306 -313 1 -3 -16 -67 -37 -142 -29 -104 -41 -137 -52 -133 -11 4 -11 2
-3 -8 9 -10 1 -54 -35 -183 -25 -93 -49 -173 -53 -177 -12 -14 -432 -119 -440
-110 -4 4 23 132 60 283 71 286 72 290 24 290 -22 0 -34 17 -34 50 0 28 128
37 208 15 111 -32 151 -2 55 42 -52 25 -70 28 -172 28 -113 1 -115 1 -122 25
-47 165 -162 610 -158 614 2 2 20 7 39 10 35 7 36 6 84 -69 27 -42 53 -78 59
-82 5 -3 -14 29 -42 71 -29 42 -49 81 -46 86 3 6 17 10 30 10 18 0 99 -76 329
-307z m-387 -42 c46 -172 82 -315 79 -318 -4 -5 -99 -17 -206 -27 -30 -3 -79
-8 -107 -12 -48 -6 -53 -5 -53 12 0 32 133 559 142 562 4 2 8 23 8 46 0 48 6
58 34 54 16 -3 31 -48 103 -317z"/>
<path d="M2365 3185 c11 -9 29 -21 40 -26 l20 -10 -20 16 c-11 9 -29 21 -40
26 l-20 10 20 -16z"/>
<path d="M2449 3132 c14 -11 38 -27 55 -37 l31 -17 -24 20 c-14 11 -38 27 -55
37 l-31 17 24 -20z"/>
<path d="M2540 3076 c0 -3 9 -10 20 -16 11 -6 20 -8 20 -6 0 3 -9 10 -20 16
-11 6 -20 8 -20 6z"/>
<path d="M2650 3006 c0 -3 9 -10 20 -16 11 -6 20 -8 20 -6 0 3 -9 10 -20 16
-11 6 -20 8 -20 6z"/>
<path d="M2715 2965 c11 -9 29 -21 40 -26 l20 -10 -20 16 c-11 9 -29 21 -40
26 l-20 10 20 -16z"/>
<path d="M2810 2906 c0 -3 9 -10 20 -16 11 -6 20 -8 20 -6 0 3 -9 10 -20 16
-11 6 -20 8 -20 6z"/>
<path d="M2920 2836 c0 -3 9 -10 20 -16 11 -6 20 -8 20 -6 0 3 -9 10 -20 16
-11 6 -20 8 -20 6z"/>
<path d="M3125 2705 c11 -9 29 -21 40 -26 l20 -10 -20 16 c-11 9 -29 21 -40
26 l-20 10 20 -16z"/>
<path d="M2255 3030 c17 -31 368 -555 378 -565 17 -17 -1 11 -186 290 -157
236 -221 329 -192 275z"/>
<path d="M2655 2426 c10 -14 19 -26 22 -26 7 0 -17 39 -28 46 -6 3 -3 -5 6
-20z"/>
<path d="M2680 2386 c0 -2 8 -10 18 -17 15 -13 16 -12 3 4 -13 16 -21 21 -21
13z"/>
<path d="M1983 2990 c0 -47 2 -66 4 -42 2 23 2 61 0 85 -2 23 -4 4 -4 -43z"/>
<path d="M1974 2690 c0 -63 1 -89 3 -57 2 31 2 83 0 115 -2 31 -3 5 -3 -58z"/>
<path d="M1445 3390 c10 -11 20 -20 23 -20 3 0 -3 9 -13 20 -10 11 -20 20 -23
20 -3 0 3 -9 13 -20z"/>
<path d="M1313 3384 c-21 -22 -15 -38 27 -79 22 -21 40 -44 40 -51 0 -6 -22
11 -49 38 -34 34 -54 47 -63 42 -10 -6 -8 -9 7 -12 24 -5 85 -61 85 -79 0 -21
14 -15 50 22 28 29 31 37 20 50 -7 8 -18 15 -24 14 -7 0 -6 -2 1 -6 17 -6 -2
-43 -22 -43 -23 0 -29 22 -11 36 10 7 15 17 11 23 -9 16 -35 13 -35 -4 0 -19
-14 -19 -29 -2 -13 17 4 37 32 37 17 0 18 2 6 16 -9 12 -14 13 -17 4 -3 -8 -7
-8 -11 -2 -4 6 -11 5 -18 -4z"/>
<path d="M3475 3359 c-11 -17 1 -21 15 -4 8 9 8 15 2 15 -6 0 -14 -5 -17 -11z"/>
<path d="M3483 3285 c4 -8 2 -17 -3 -20 -18 -11 -11 -21 23 -33 45 -16 89 -15
123 3 33 17 64 20 64 5 0 -5 6 -10 13 -10 6 0 21 -14 32 -30 11 -16 27 -30 36
-30 8 0 26 -11 39 -25 l23 -25 -21 0 c-12 0 -22 5 -22 10 0 6 -6 10 -14 10 -8
0 -31 16 -51 35 -30 28 -42 33 -66 28 -39 -8 -37 -23 4 -23 24 0 41 -8 63 -31
45 -48 184 -113 184 -86 0 7 -45 56 -101 110 l-102 97 -62 0 c-34 0 -84 7
-111 15 -60 18 -57 18 -51 0z m106 -24 c35 -1 17 -14 -24 -16 -20 -2 -39 3
-46 12 -10 12 -8 13 17 9 16 -2 40 -5 53 -5z"/>
<path d="M1210 3271 c0 -5 7 -14 15 -21 21 -17 12 -24 -14 -10 -14 7 -21 7
-21 0 0 -5 6 -10 13 -10 6 0 19 -4 27 -10 12 -7 12 -12 -4 -29 -21 -23 -46
-17 -46 12 0 20 -1 20 -25 -3 -28 -26 -32 -42 -11 -38 18 4 95 -53 96 -69 0
-20 18 -15 30 6 13 26 13 31 -4 31 -7 0 -19 7 -26 15 -10 12 -10 18 0 30 18
21 41 19 47 -5 7 -25 15 -25 36 -2 22 24 21 32 -3 32 -10 0 -38 18 -61 40 -45
42 -49 45 -49 31z m75 -66 c16 -13 27 -26 25 -29 -3 -2 -21 9 -40 25 -19 16
-30 29 -25 29 6 -1 23 -12 40 -25z m-74 -52 c26 -21 48 -42 49 -46 0 -9 -34
14 -85 57 -47 40 -19 30 36 -11z"/>
<path d="M3321 3251 c-7 -5 -12 -14 -10 -20 2 -6 10 -2 17 9 14 22 13 23 -7
11z"/>
<path d="M3450 3190 c-10 -6 18 -10 79 -10 52 0 92 2 90 5 -10 9 -156 13 -169
5z"/>
<path d="M3272 3097 c-6 -7 -7 -18 -3 -26 7 -10 10 -8 16 8 8 27 2 36 -13 18z"/>
<path d="M3312 3070 c-7 -11 -9 -20 -4 -20 10 0 32 22 32 32 0 15 -15 8 -28
-12z"/>
<path d="M1045 3040 c-3 -5 -3 -10 1 -10 4 0 0 -6 -10 -13 -14 -10 -15 -18 -7
-39 10 -26 46 -58 66 -58 5 0 -5 9 -22 20 -18 11 -33 24 -33 29 0 5 -3 17 -7
27 -4 11 -3 15 5 10 6 -3 13 -2 17 4 4 6 10 8 15 5 5 -3 11 -1 15 4 3 6 -3 15
-14 21 -13 7 -22 7 -26 0z"/>
<path d="M1131 3000 c26 -21 19 -26 -12 -10 -15 8 -19 7 -19 -4 0 -9 6 -13 14
-10 18 7 47 -23 40 -41 -3 -7 -13 -11 -22 -8 -14 4 -14 3 -3 -5 11 -8 10 -11
-6 -16 -11 -4 -29 -4 -39 -1 -13 4 -12 2 3 -6 29 -15 66 8 81 49 9 26 7 33
-14 51 -13 12 -29 21 -35 21 -6 0 -1 -9 12 -20z"/>
<path d="M1035 2930 c10 -11 20 -20 23 -20 3 0 -3 9 -13 20 -10 11 -20 20 -23
20 -3 0 3 -9 13 -20z"/>
<path d="M965 2890 c-4 -6 0 -10 7 -10 9 -1 7 -5 -5 -14 -15 -12 -13 -14 23
-20 41 -6 53 -21 23 -29 -10 -2 -7 -3 7 -2 14 1 33 6 43 10 10 4 17 3 17 -3 0
-6 -19 -15 -42 -21 l-43 -11 44 6 c77 9 81 24 15 49 -26 10 -55 26 -65 36 -10
10 -21 14 -24 9z"/>
<path d="M948 2803 c6 -2 18 -2 25 0 6 3 1 5 -13 5 -14 0 -19 -2 -12 -5z"/>
<path d="M943 2783 c-13 -2 -23 -9 -23 -14 0 -6 4 -8 9 -5 11 7 80 -20 103
-41 15 -13 18 -12 27 6 15 27 15 28 -20 28 -18 0 -37 7 -44 16 -7 10 -16 16
-21 16 -5 -1 -19 -4 -31 -6z"/>
<path d="M886 2694 c-11 -29 -6 -42 17 -41 12 1 33 -2 47 -7 20 -6 22 -5 10 4
-12 10 -10 11 10 6 14 -3 31 -6 38 -6 6 0 12 -4 12 -10 0 -5 -7 -7 -15 -4 -11
5 -13 2 -9 -10 8 -20 20 -21 28 0 10 25 7 46 -5 39 -15 -10 -100 16 -106 32
-7 18 -20 17 -27 -3z m60 -32 c-6 -6 -56 10 -56 18 0 5 13 3 30 -3 16 -6 28
-13 26 -15z"/>
<path d="M866 2593 c2 -7 -1 -15 -7 -18 -15 -10 -1 -24 34 -34 31 -10 30 -10
-10 -6 -24 2 -43 0 -43 -5 0 -5 -3 -17 -6 -27 -5 -15 -4 -15 5 -3 9 13 11 13
11 -2 0 -10 7 -18 15 -18 18 0 20 17 3 22 -6 2 -9 9 -5 15 9 15 88 -4 104 -25
15 -19 20 -15 25 18 3 26 -13 41 -21 19 -2 -7 1 -9 10 -4 10 6 11 5 4 -3 -7
-8 -20 -9 -40 -3 -29 9 -29 9 -5 11 20 2 16 4 -17 13 -50 14 -62 24 -39 33 9
3 16 11 16 16 0 6 -6 8 -14 5 -8 -3 -17 -3 -19 1 -2 4 -2 2 -1 -5z"/>
<path d="M3300 2596 c0 -3 9 -10 20 -16 11 -6 20 -8 20 -6 0 3 -9 10 -20 16
-11 6 -20 8 -20 6z"/>
<path d="M3365 2555 c11 -9 29 -21 40 -26 l20 -10 -20 16 c-11 9 -29 21 -40
26 l-20 10 20 -16z"/>
<path d="M3460 2496 c0 -3 9 -10 20 -16 11 -6 20 -8 20 -6 0 3 -9 10 -20 16
-11 6 -20 8 -20 6z"/>
<path d="M940 2419 c-13 -9 -12 -10 3 -5 9 3 17 1 17 -4 0 -4 -13 -11 -30 -14
-16 -3 -43 -9 -60 -12 -16 -3 -32 -10 -35 -14 -8 -13 53 -42 68 -34 7 4 9 4 5
-1 -8 -9 33 -45 44 -38 5 2 8 13 8 24 0 13 -6 19 -17 17 -21 -4 -30 29 -13 46
9 8 14 8 17 -2 7 -19 23 -3 23 24 0 26 -7 29 -30 13z m-40 -49 c0 -5 -7 -10
-16 -10 -8 0 -12 5 -9 10 3 6 10 10 16 10 5 0 9 -4 9 -10z"/>
<path d="M1963 2345 c0 -44 2 -61 4 -37 2 23 2 59 0 80 -2 20 -4 1 -4 -43z"/>
<path d="M855 2400 c-13 -5 -14 -9 -5 -9 8 0 24 4 35 9 13 5 14 9 5 9 -8 0
-24 -4 -35 -9z"/>
<path d="M809 2243 c-13 -16 -12 -17 4 -4 9 7 17 15 17 17 0 8 -8 3 -21 -13z"/>
<path d="M909 2251 c19 -13 24 -66 6 -81 -7 -6 -31 -10 -52 -8 -35 3 -38 5
-38 33 0 28 3 30 45 36 l45 6 -40 1 c-45 2 -64 -11 -66 -42 -1 -18 -2 -17 -9
4 -7 22 -8 23 -9 4 -1 -27 35 -74 57 -73 14 0 13 2 -3 9 -16 7 -12 9 19 9 22
1 48 8 58 18 10 9 18 11 18 5 0 -6 -10 -18 -22 -26 -12 -9 -18 -16 -12 -16 20
0 44 36 44 67 0 28 -25 63 -46 63 -5 0 -3 -4 5 -9z"/>
<path d="M1954 2030 c0 -63 1 -89 3 -57 2 31 2 83 0 115 -2 31 -3 5 -3 -58z"/>
<path d="M900 2081 c0 -5 7 -11 15 -15 21 -8 19 -34 -2 -39 -10 -2 -8 -3 5 -2
12 1 22 -2 22 -6 0 -5 -19 -10 -42 -11 -41 -1 -41 -1 -8 -5 19 -3 41 -9 47
-15 10 -8 13 2 13 46 0 53 -1 56 -25 56 -14 0 -25 -4 -25 -9z"/>
<path d="M800 2010 c0 -16 4 -30 9 -30 16 0 22 18 9 24 -11 5 -11 7 0 12 13 6
7 24 -9 24 -5 0 -9 -13 -9 -30z"/>
<path d="M830 1929 c0 -5 -4 -7 -10 -4 -12 8 6 -43 23 -64 10 -12 9 -14 -5 -8
-13 5 -18 1 -18 -13 0 -23 15 -27 23 -6 3 8 23 17 44 19 l38 4 -35 1 c-40 2
-70 36 -51 55 14 14 14 27 1 27 -5 0 -10 -5 -10 -11z"/>
<path d="M865 1920 c-3 -5 -1 -10 6 -10 6 0 9 -8 6 -19 -3 -14 0 -19 12 -18
25 2 25 57 0 57 -10 0 -21 -4 -24 -10z"/>
<path d="M932 1895 c-11 -13 -9 -15 10 -16 19 0 20 -2 6 -7 -16 -7 -16 -8 3
-20 19 -12 20 -11 17 19 -3 37 -17 45 -36 24z"/>
<path d="M947 1683 c-4 -3 -7 -11 -7 -17 0 -7 3 -7 8 0 4 7 16 14 27 17 19 5
19 5 -1 6 -11 0 -24 -2 -27 -6z"/>
<path d="M1020 1641 c0 -21 -32 -37 -65 -32 -20 3 -20 3 -1 -18 17 -19 21 -20
28 -6 9 15 48 21 48 7 0 -10 -38 -42 -51 -42 -5 0 -9 -8 -7 -17 2 -12 -3 -17
-14 -15 -11 2 -18 -3 -18 -14 0 -13 6 -15 28 -10 15 4 36 8 47 9 11 1 22 8 25
15 7 16 86 -96 132 -185 6 -13 17 -23 25 -23 12 0 11 4 -1 22 -9 12 -16 30
-16 40 0 9 -16 33 -35 52 -19 20 -35 42 -35 51 0 8 -4 15 -9 15 -5 0 -11 14
-15 32 -5 27 -2 36 21 55 24 19 26 24 13 33 -8 5 -22 7 -30 4 -44 -18 -50 -17
-50 9 0 14 -4 29 -10 32 -5 3 -10 -3 -10 -14z m6 -96 c-11 -8 -25 -15 -30 -15
-6 1 0 7 14 15 32 19 40 18 16 0z"/>
<path d="M940 1641 c0 -5 5 -13 10 -16 6 -3 10 -2 10 4 0 5 -4 13 -10 16 -5 3
-10 2 -10 -4z"/>
<path d="M1333 1503 c2 -10 -3 -30 -10 -45 -12 -24 -12 -28 2 -28 8 0 16 8 17
18 0 9 4 -5 8 -33 6 -45 7 -46 8 -13 2 25 7 38 19 40 15 3 15 5 1 18 -8 9 -19
26 -22 38 -9 26 -29 30 -23 5z"/>
<path d="M1292 1340 c-12 -16 -18 -32 -12 -35 9 -5 45 53 38 61 -3 2 -14 -9
-26 -26z"/>
<path d="M1307 1271 c-20 -26 -37 -53 -37 -59 0 -6 -8 -16 -17 -21 -15 -9 -15
-10 -2 -11 14 0 105 128 96 136 -2 2 -20 -18 -40 -45z"/>
<path d="M948 1243 c12 -17 22 -37 22 -45 0 -11 2 -11 9 1 7 11 13 10 35 -4
47 -31 27 -9 -31 36 -54 40 -56 41 -35 12z"/>
<path d="M1085 1220 c-30 -8 -30 -8 8 -9 23 -1 36 3 32 9 -3 6 -7 9 -8 9 -1
-1 -15 -5 -32 -9z"/>
<path d="M1114 1181 c-13 -13 1 -17 41 -11 61 9 65 16 9 16 -25 -1 -47 -3 -50
-5z"/>
</g>
</svg>
